HIERARCHY
ROOT newVegas:Hips
{
	OFFSET 0.000000 96.479958 0.000000
	CHANNELS 6 Xposition Yposition Zposition Xrotation Yrotation Zrotation
	JOINT newVegas:Pelvis
	{
		OFFSET 0.000000 0.000000 0.000000
		CHANNELS 3 Xrotation Yrotation Zrotation
		JOINT newVegas:LeftUpLeg
		{
			OFFSET 18.735201 -5.666702 -4.541200
			CHANNELS 3 Xrotation Yrotation Zrotation
			JOINT newVegas:LeftLeg
			{
				OFFSET -0.021200 -31.938179 0.493100
				CHANNELS 3 Xrotation Yrotation Zrotation
				JOINT newVegas:LeftFoot
				{
					OFFSET 0.021200 -31.938179 -4.336299
					CHANNELS 3 Xrotation Yrotation Zrotation
					JOINT newVegas:LeftToeBase
					{
						OFFSET 0.943001 -26.722000 15.023500
						CHANNELS 3 Xrotation Yrotation Zrotation
						End Site
						{
							OFFSET 0.000000 30.670183 0.000000
						}
					}
				}
				JOINT newVegas:Left_PantLeg
				{
					OFFSET 0.663870 -9.044666 -1.108900
					CHANNELS 3 Xrotation Yrotation Zrotation
					End Site
					{
						OFFSET 1.415995 20.635357 0.000000
					}
				}
			}
		}
		JOINT newVegas:RightUpLeg
		{
			OFFSET -18.735201 -5.666702 -4.541200
			CHANNELS 3 Xrotation Yrotation Zrotation
			JOINT newVegas:RightLeg
			{
				OFFSET 0.018946 -31.938133 0.493100
				CHANNELS 3 Xrotation Yrotation Zrotation
				JOINT newVegas:RightFoot
				{
					OFFSET -0.018946 -31.938126 -4.336299
					CHANNELS 3 Xrotation Yrotation Zrotation
					JOINT newVegas:RightToeBase
					{
						OFFSET -0.943001 -26.722004 15.023500
						CHANNELS 3 Xrotation Yrotation Zrotation
						End Site
						{
							OFFSET 0.000000 30.670187 0.000000
						}
					}
				}
				JOINT newVegas:Right_PantLeg
				{
					OFFSET -0.661674 -9.044716 -1.108900
					CHANNELS 3 Xrotation Yrotation Zrotation
					End Site
					{
						OFFSET -1.415958 20.635269 0.000000
					}
				}
			}
		}
	}
	JOINT newVegas:Spine
	{
		OFFSET 0.000000 10.199997 -0.299500
		CHANNELS 3 Xrotation Yrotation Zrotation
		JOINT newVegas:Spine1
		{
			OFFSET 0.000000 11.900002 -1.516600
			CHANNELS 3 Xrotation Yrotation Zrotation
			JOINT newVegas:Spine2
			{
				OFFSET 0.000000 13.600006 -2.842500
				CHANNELS 3 Xrotation Yrotation Zrotation
				JOINT newVegas:Neck
				{
					OFFSET 0.000000 9.624100 -2.890100
					CHANNELS 3 Xrotation Yrotation Zrotation
					JOINT newVegas:Head
					{
						OFFSET 0.000000 14.068802 -1.351900
						CHANNELS 3 Xrotation Yrotation Zrotation
						JOINT newVegas:Hair_Back
						{
							OFFSET 0.000000 3.231903 -17.524799
							CHANNELS 3 Xrotation Yrotation Zrotation
							End Site
							{
								OFFSET 0.000000 19.849884 0.000000
							}
						}
						JOINT newVegas:Hair_Front
						{
							OFFSET 0.000000 31.260406 4.573800
							CHANNELS 3 Xrotation Yrotation Zrotation
							JOINT newVegas:Hair_Front1
							{
								OFFSET 0.000000 2.284103 11.993300
								CHANNELS 3 Xrotation Yrotation Zrotation
								JOINT newVegas:Hair_Front2
								{
									OFFSET 0.000000 2.284103 11.993300
									CHANNELS 3 Xrotation Yrotation Zrotation
									End Site
									{
										OFFSET 0.000000 12.208862 0.000000
									}
								}
							}
						}
						JOINT newVegas:Jowel
						{
							OFFSET 0.000000 -7.458206 6.864100
							CHANNELS 3 Xrotation Yrotation Zrotation
							End Site
							{
								OFFSET 0.000000 19.849884 0.000000
							}
						}
					}
				}
				JOINT newVegas:LeftShoulder
				{
					OFFSET 15.263000 10.923401 -0.547700
					CHANNELS 3 Xrotation Yrotation Zrotation
					JOINT newVegas:LeftArm
					{
						OFFSET 25.438599 -2.830597 -13.032500
						CHANNELS 3 Xrotation Yrotation Zrotation
						JOINT newVegas:LeftForeArm
						{
							OFFSET 29.960503 0.000000 0.000000
							CHANNELS 3 Xrotation Yrotation Zrotation
							JOINT newVegas:LeftHand
							{
								OFFSET 27.849251 0.000000 0.000000
								CHANNELS 3 Xrotation Yrotation Zrotation
								JOINT newVegas:LeftHandThumb1
								{
									OFFSET 4.487587 -3.305161 6.305391
									CHANNELS 3 Xrotation Yrotation Zrotation
									JOINT newVegas:LeftHandThumb2
									{
										OFFSET 5.480453 -3.164139 3.164143
										CHANNELS 3 Xrotation Yrotation Zrotation
										JOINT newVegas:LeftHandThumb3
										{
											OFFSET 5.159721 -2.978973 2.978967
											CHANNELS 3 Xrotation Yrotation Zrotation
											End Site
											{
												OFFSET 2.494507 5.926697 1.738678
											}
										}
									}
								}
								JOINT newVegas:LeftHandIndex1
								{
									OFFSET 18.578728 -0.527832 5.208049
									CHANNELS 3 Xrotation Yrotation Zrotation
									JOINT newVegas:LeftHandIndex2
									{
										OFFSET 3.192009 0.000000 0.000000
										CHANNELS 3 Xrotation Yrotation Zrotation
										JOINT newVegas:LeftHandIndex3
										{
											OFFSET 3.835129 0.000000 0.000000
											CHANNELS 3 Xrotation Yrotation Zrotation
											End Site
											{
												OFFSET -0.034599 3.816971 0.371180
											}
										}
									}
								}
								JOINT newVegas:LeftHandMiddle1
								{
									OFFSET 18.476105 0.000000 0.000000
									CHANNELS 3 Xrotation Yrotation Zrotation
									JOINT newVegas:LeftHandMiddle2
									{
										OFFSET 3.324875 0.000000 0.000000
										CHANNELS 3 Xrotation Yrotation Zrotation
										JOINT newVegas:LeftHandMiddle3
										{
											OFFSET 4.596550 0.000000 0.000000
											CHANNELS 3 Xrotation Yrotation Zrotation
											End Site
											{
												OFFSET 0.057701 4.578827 0.399218
											}
										}
									}
								}
								JOINT newVegas:LeftHandRing1
								{
									OFFSET 17.732719 0.121887 -4.201567
									CHANNELS 3 Xrotation Yrotation Zrotation
									JOINT newVegas:LeftHandRing2
									{
										OFFSET 2.733170 0.000000 0.000000
										CHANNELS 3 Xrotation Yrotation Zrotation
										JOINT newVegas:LeftHandRing3
										{
											OFFSET 3.178268 0.000000 0.000000
											CHANNELS 3 Xrotation Yrotation Zrotation
											End Site
											{
												OFFSET 0.119102 3.170624 0.185394
											}
										}
									}
								}
								JOINT newVegas:LeftHandPinky1
								{
									OFFSET 15.989624 -0.606689 -7.535461
									CHANNELS 3 Xrotation Yrotation Zrotation
									JOINT newVegas:LeftHandPinky2
									{
										OFFSET 2.538986 0.000000 0.000000
										CHANNELS 3 Xrotation Yrotation Zrotation
										JOINT newVegas:LeftHandPinky3
										{
											OFFSET 2.593102 0.000000 0.000000
											CHANNELS 3 Xrotation Yrotation Zrotation
											End Site
											{
												OFFSET -0.150902 2.584198 0.152708
											}
										}
									}
								}
							}
							JOINT newVegas:Left_Sleeve
							{
								OFFSET 0.267448 -0.649796 0.577675
								CHANNELS 3 Xrotation Yrotation Zrotation
								End Site
								{
									OFFSET 0.000000 15.991241 0.000000
								}
							}
							JOINT newVegas:Left_CapeC
							{
								OFFSET 15.715958 -8.608795 -6.935905
								CHANNELS 3 Xrotation Yrotation Zrotation
								JOINT newVegas:Left_CapeC1
								{
									OFFSET 0.000000 -8.688499 0.000000
									CHANNELS 3 Xrotation Yrotation Zrotation
									End Site
									{
										OFFSET 0.000000 8.688499 0.000000
									}
								}
							}
						}
						JOINT newVegas:Left_CapeB
						{
							OFFSET 26.118385 -8.608795 -7.079235
							CHANNELS 3 Xrotation Yrotation Zrotation
							JOINT newVegas:Left_CapeB1
							{
								OFFSET 0.000000 -8.688499 0.000000
								CHANNELS 3 Xrotation Yrotation Zrotation
								End Site
								{
									OFFSET 0.000000 8.688499 0.000000
								}
							}
						}
						JOINT newVegas:Left_CapeA
						{
							OFFSET 5.115639 -8.608795 -10.395809
							CHANNELS 3 Xrotation Yrotation Zrotation
							JOINT newVegas:Left_CapeA1
							{
								OFFSET 0.000000 -8.688499 0.000000
								CHANNELS 3 Xrotation Yrotation Zrotation
								End Site
								{
									OFFSET 0.000000 8.688499 0.000000
								}
							}
						}
					}
				}
				JOINT newVegas:RightShoulder
				{
					OFFSET -15.263000 10.923401 -0.547700
					CHANNELS 3 Xrotation Yrotation Zrotation
					JOINT newVegas:RightArm
					{
						OFFSET -25.438599 -2.830597 -13.032500
						CHANNELS 3 Xrotation Yrotation Zrotation
						JOINT newVegas:RightForeArm
						{
							OFFSET -29.960503 0.000000 0.000000
							CHANNELS 3 Xrotation Yrotation Zrotation
							JOINT newVegas:RightHand
							{
								OFFSET -27.849251 0.000000 0.000000
								CHANNELS 3 Xrotation Yrotation Zrotation
								JOINT newVegas:RightHandThumb1
								{
									OFFSET -4.487587 -3.305161 6.305391
									CHANNELS 3 Xrotation Yrotation Zrotation
									JOINT newVegas:RightHandThumb2
									{
										OFFSET -5.480453 -3.164139 3.164143
										CHANNELS 3 Xrotation Yrotation Zrotation
										JOINT newVegas:RightHandThumb3
										{
											OFFSET -5.159721 -2.978973 2.978967
											CHANNELS 3 Xrotation Yrotation Zrotation
											End Site
											{
												OFFSET -2.494507 5.926697 1.738678
											}
										}
									}
								}
								JOINT newVegas:RightHandIndex1
								{
									OFFSET -18.578728 -0.527832 5.208049
									CHANNELS 3 Xrotation Yrotation Zrotation
									JOINT newVegas:RightHandIndex2
									{
										OFFSET -3.192009 0.000000 0.000000
										CHANNELS 3 Xrotation Yrotation Zrotation
										JOINT newVegas:RightHandIndex3
										{
											OFFSET -3.835129 0.000000 0.000000
											CHANNELS 3 Xrotation Yrotation Zrotation
											End Site
											{
												OFFSET 0.034599 3.816971 0.371180
											}
										}
									}
								}
								JOINT newVegas:RightHandMiddle1
								{
									OFFSET -18.476105 0.000000 0.000000
									CHANNELS 3 Xrotation Yrotation Zrotation
									JOINT newVegas:RightHandMiddle2
									{
										OFFSET -3.324875 0.000000 0.000000
										CHANNELS 3 Xrotation Yrotation Zrotation
										JOINT newVegas:RightHandMiddle3
										{
											OFFSET -4.596550 0.000000 0.000000
											CHANNELS 3 Xrotation Yrotation Zrotation
											End Site
											{
												OFFSET -0.057701 4.578827 0.399218
											}
										}
									}
								}
								JOINT newVegas:RightHandRing1
								{
									OFFSET -17.732719 0.121887 -4.201567
									CHANNELS 3 Xrotation Yrotation Zrotation
									JOINT newVegas:RightHandRing2
									{
										OFFSET -2.733170 0.000000 0.000000
										CHANNELS 3 Xrotation Yrotation Zrotation
										JOINT newVegas:RightHandRing3
										{
											OFFSET -3.178268 0.000000 0.000000
											CHANNELS 3 Xrotation Yrotation Zrotation
											End Site
											{
												OFFSET -0.119102 3.170624 0.185394
											}
										}
									}
								}
								JOINT newVegas:RightHandPinky1
								{
									OFFSET -15.989624 -0.606689 -7.535461
									CHANNELS 3 Xrotation Yrotation Zrotation
									JOINT newVegas:RightHandPinky2
									{
										OFFSET -2.538986 0.000000 0.000000
										CHANNELS 3 Xrotation Yrotation Zrotation
										JOINT newVegas:RightHandPinky3
										{
											OFFSET -2.593102 0.000000 0.000000
											CHANNELS 3 Xrotation Yrotation Zrotation
											End Site
											{
												OFFSET 0.150902 2.584198 0.152708
											}
										}
									}
								}
							}
							JOINT newVegas:Right_CapeC
							{
								OFFSET -15.715958 -8.608795 -6.935905
								CHANNELS 3 Xrotation Yrotation Zrotation
								JOINT newVegas:Right_CapeC1
								{
									OFFSET 0.000000 -8.688499 0.000000
									CHANNELS 3 Xrotation Yrotation Zrotation
									End Site
									{
										OFFSET 0.000000 8.688499 0.000000
									}
								}
							}
							JOINT newVegas:Right_Sleeve
							{
								OFFSET -0.267448 -0.649994 0.577675
								CHANNELS 3 Xrotation Yrotation Zrotation
								End Site
								{
									OFFSET 0.000000 15.991302 0.000000
								}
							}
						}
						JOINT newVegas:Right_CapeA
						{
							OFFSET -5.115540 -8.608795 -10.395824
							CHANNELS 3 Xrotation Yrotation Zrotation
							JOINT newVegas:Right_CapeA1
							{
								OFFSET 0.000000 -8.688499 0.000000
								CHANNELS 3 Xrotation Yrotation Zrotation
								End Site
								{
									OFFSET 0.000000 8.688499 0.000000
								}
							}
						}
						JOINT newVegas:Right_CapeB
						{
							OFFSET -26.118187 -8.608795 -7.079266
							CHANNELS 3 Xrotation Yrotation Zrotation
							JOINT newVegas:Right_CapeB1
							{
								OFFSET 0.000000 -8.688499 0.000000
								CHANNELS 3 Xrotation Yrotation Zrotation
								End Site
								{
									OFFSET 0.000000 8.688499 0.000000
								}
							}
						}
					}
				}
				JOINT newVegas:Left_Collar
				{
					OFFSET 18.625099 8.655502 8.828100
					CHANNELS 3 Xrotation Yrotation Zrotation
					JOINT newVegas:Left_Collar1
					{
						OFFSET 14.783401 10.540405 -1.259500
						CHANNELS 3 Xrotation Yrotation Zrotation
						End Site
						{
							OFFSET 0.000000 18.199875 0.000000
						}
					}
				}
				JOINT newVegas:Collar_Back
				{
					OFFSET 0.000000 15.630707 -20.132601
					CHANNELS 3 Xrotation Yrotation Zrotation
					End Site
					{
						OFFSET 0.000000 22.523010 0.000000
					}
				}
				JOINT newVegas:Left_Peck
				{
					OFFSET 17.239599 -5.132599 25.482599
					CHANNELS 3 Xrotation Yrotation Zrotation
					End Site
					{
						OFFSET 0.000000 22.523010 0.000000
					}
				}
				JOINT newVegas:Right_Peck
				{
					OFFSET -17.239599 -5.132202 25.482599
					CHANNELS 3 Xrotation Yrotation Zrotation
					End Site
					{
						OFFSET 0.000000 22.523010 0.000000
					}
				}
				JOINT newVegas:Right_Collar
				{
					OFFSET -18.625099 8.655792 8.828100
					CHANNELS 3 Xrotation Yrotation Zrotation
					JOINT newVegas:Right_Collar1
					{
						OFFSET -14.783401 10.539993 -1.259500
						CHANNELS 3 Xrotation Yrotation Zrotation
						End Site
						{
							OFFSET 0.000000 18.199631 0.000000
						}
					}
				}
			}
		}
		JOINT newVegas:Belly
		{
			OFFSET 0.000000 -6.540398 9.014299
			CHANNELS 3 Xrotation Yrotation Zrotation
			End Site
			{
				OFFSET 0.000000 11.566666 0.000000
			}
		}
	}
	JOINT newVegas:ElvisFacialAnim_Joint
	{
		OFFSET 1.000000 -95.330101 -8.825800
		CHANNELS 3 Xrotation Yrotation Zrotation
		End Site
		{
			OFFSET 0.000000 35.315800 0.000000
		}
	}
}
MOTION
Frames: 4
Frame Time: 0.016667
-2.609165 89.554657 3.884800 5.044403 -14.113916 9.112838 -0.000000 0.000001 -0.000001 -31.665959 -7.647206 -13.838505 4.349352 -5.124872 -6.452493 23.570778 -26.783940 6.151524 -0.000000 -0.000002 -0.000000 -0.000001 0.000003 0.000001 -0.711439 -14.897852 -13.458848 38.462537 6.285740 -5.754474 -12.633863 -1.306565 9.831151 -0.000002 0.000000 0.000001 0.000000 0.000002 -0.000003 1.692740 4.765783 1.617633 5.177708 9.319221 2.133655 5.034877 9.321733 2.400953 -0.568285 -0.443309 -0.506789 -0.568292 -0.443309 -0.506787 0.000001 0.000001 0.000001 -0.568212 -0.443322 -0.506782 -0.568284 -0.443288 -0.506795 -0.000000 0.000001 0.000003 0.000001 0.000001 0.000001 0.683995 -0.873511 -14.226767 -18.744839 -25.288446 -72.307736 0.000002 -68.920700 -0.000001 -36.056589 9.257044 42.116176 -10.930929 -6.748095 10.337288 -18.089418 8.879768 2.392671 0.000003 -0.000001 0.000004 5.890359 8.200087 -88.621821 6.193161 5.841087 -93.357635 -0.000001 -0.000003 0.000002 7.765532 7.903994 -107.399486 4.299844 5.642361 -74.600808 0.000000 -0.000002 0.000001 7.314726 8.035603 -105.794993 3.608025 5.405407 -67.422921 0.000000 -0.000000 -0.000005 10.390464 6.780255 -113.877114 1.747960 4.174833 -45.422165 -0.000000 -0.000003 0.000001 0.000002 0.000001 -0.000000 0.000002 0.000001 -0.000000 0.000001 0.000001 -0.000000 -0.000001 0.000001 -0.000001 -0.000001 0.000000 -0.000001 -0.000001 0.000001 -0.000001 -0.000000 0.000001 -0.000002 -0.133326 13.109080 18.148140 -38.704964 64.841424 69.860295 0.000006 37.971446 -0.000005 -24.338577 -7.627328 -15.970113 17.912429 17.120576 -32.483540 12.694411 -52.014237 20.210856 -0.000001 -0.000000 -0.000001 0.276340 -8.899009 1.740172 5.888276 -4.491851 105.344180 -0.000000 0.000000 0.000001 4.166166 -8.600782 42.153216 7.050138 -3.996495 120.947118 -0.000002 -0.000000 0.000000 -0.361100 -4.549259 57.044230 4.703206 -4.656922 90.567079 -0.000002 0.000002 -0.000001 -5.324595 -0.292092 51.887318 3.524510 -4.517609 75.909274 0.000001 -0.000002 0.000001 0.000001 -0.000000 -0.000002 0.000001 -0.000000 -0.000000 -0.000000 0.000000 -0.000000 -0.000000 0.000003 0.000004 -0.000001 0.000003 0.000005 -0.000000 0.000003 0.000004 -0.000000 0.000003 0.000007 0.000001 -0.000000 -0.000003 0.000001 -0.000000 -0.000003 0.000001 -0.000000 -0.000003 0.000001 -0.000000 -0.000003 0.000001 -0.000000 -0.000003 0.000001 -0.000000 -0.000003 0.000001 -0.000000 -0.000003 0.000000 0.000001 0.000000 -0.000000 0.000001 -0.000001 
-2.583461 89.572723 3.861330 5.096075 -14.178429 8.954953 0.000000 0.000000 -0.000000 -31.768439 -7.444069 -13.723635 4.531150 -5.343401 -6.374406 23.590644 -26.763336 6.171286 -0.000000 0.000000 -0.000000 -0.000000 0.000001 0.000001 -0.190013 -15.005236 -13.225862 37.733004 6.407873 -5.607159 -12.995220 -1.292553 9.647843 -0.000004 -0.000002 0.000001 -0.000002 0.000002 -0.000003 1.757476 4.855735 1.619657 5.160748 9.282536 2.112638 5.022806 9.284442 2.374299 -0.621321 -0.463583 -0.497408 -0.621314 -0.463582 -0.497402 -0.000001 0.000000 0.000000 -0.621321 -0.463584 -0.497404 -0.621315 -0.463560 -0.497402 -0.000000 0.000000 0.000001 -0.000001 0.000000 0.000000 0.681857 -0.881335 -14.238710 -18.870675 -25.494067 -72.321827 -0.000013 -68.978012 -0.000016 -35.909720 8.762840 42.291848 -10.930949 -6.748098 10.337268 -18.089415 8.879768 2.392677 0.000001 -0.000002 0.000000 5.684037 8.194817 -88.397025 6.193747 5.841071 -93.363707 -0.000001 -0.000002 -0.000002 7.765534 7.904012 -107.399493 4.299868 5.642369 -74.600795 0.000001 -0.000000 -0.000000 7.314715 8.035589 -105.794986 3.608015 5.405408 -67.422915 -0.000001 0.000001 -0.000001 10.390465 6.780255 -113.877135 1.747962 4.174820 -45.422165 -0.000001 -0.000002 0.000000 0.000000 -0.000001 -0.000000 0.000000 -0.000001 -0.000000 -0.000001 -0.000001 -0.000000 -0.000001 0.000001 -0.000001 -0.000000 -0.000000 -0.000003 -0.000001 0.000001 -0.000001 -0.000000 0.000001 -0.000002 -0.124891 13.084223 18.116891 -38.677954 64.587683 69.785047 -0.000002 38.471584 0.000016 -23.446977 -7.328088 -15.998972 17.912427 17.120571 -32.483574 12.694409 -52.014233 20.210856 -0.000001 0.000001 -0.000004 0.276359 -8.899015 1.740165 5.888278 -4.491854 105.344186 -0.000002 -0.000000 0.000001 4.166158 -8.600801 42.153223 7.050139 -3.996497 120.947118 -0.000001 -0.000001 -0.000001 -0.361096 -4.549260 57.044234 4.703205 -4.656925 90.567086 -0.000001 0.000001 0.000000 -5.324606 -0.292106 51.887304 3.524506 -4.517610 75.909268 0.000000 0.000001 0.000002 -0.000002 0.000001 0.000004 -0.000002 -0.000000 0.000002 -0.000003 0.000002 0.000006 -0.000002 0.000000 0.000003 -0.000002 0.000000 0.000004 -0.000002 0.000000 0.000003 -0.000002 0.000000 0.000006 0.000001 -0.000000 -0.000001 0.000001 -0.000000 -0.000001 0.000001 -0.000000 -0.000001 0.000001 -0.000000 -0.000001 0.000001 -0.000000 -0.000001 0.000001 -0.000000 -0.000001 0.000001 -0.000000 -0.000001 -0.000000 -0.000000 0.000000 0.000000 0.000000 -0.000000 
-2.559477 89.584816 3.836937 5.151856 -14.242501 8.789766 -0.000000 0.000001 0.000000 -32.074350 -7.207783 -13.589860 5.169049 -5.554004 -6.324515 23.283317 -26.771022 6.182832 -0.000000 -0.000000 -0.000000 -0.000002 -0.000001 0.000000 0.364708 -15.113440 -12.971294 36.963136 6.555314 -5.455399 -13.372285 -1.300410 9.449766 -0.000001 0.000000 -0.000001 -0.000001 -0.000002 0.000000 1.819988 4.952534 1.635954 5.142800 9.248734 2.093728 5.009902 9.249994 2.349702 -0.676563 -0.484679 -0.489894 -0.676570 -0.484683 -0.489887 -0.000000 -0.000001 -0.000000 -0.676569 -0.484688 -0.489890 -0.676559 -0.484668 -0.489896 -0.000000 -0.000001 -0.000002 -0.000000 -0.000001 -0.000001 0.679173 -0.891283 -14.251472 -19.028045 -25.737568 -72.345992 0.000092 -69.038685 0.000100 -35.733514 8.163547 42.501569 -10.930949 -6.748089 10.337257 -18.089415 8.879769 2.392677 -0.000000 0.000000 -0.000004 5.440048 8.186721 -88.133394 6.194492 5.841026 -93.370851 -0.000002 0.000000 0.000001 7.765531 7.904001 -107.399486 4.299869 5.642365 -74.600822 -0.000000 -0.000002 0.000001 7.314712 8.035599 -105.794979 3.608027 5.405405 -67.422894 0.000001 -0.000000 -0.000003 10.390457 6.780237 -113.877142 1.747959 4.174823 -45.422179 -0.000003 -0.000002 -0.000001 -0.000002 0.000000 0.000000 -0.000002 0.000000 0.000000 -0.000002 0.000000 0.000000 -0.000001 -0.000002 0.000000 -0.000001 -0.000002 0.000000 -0.000001 -0.000002 0.000000 -0.000000 -0.000002 -0.000000 -0.114677 13.054871 18.076915 -38.651801 64.286348 69.702818 -0.000012 39.069683 0.000015 -22.411420 -6.958791 -16.094350 17.912419 17.120574 -32.483546 12.694415 -52.014230 20.210864 0.000001 -0.000002 -0.000001 0.276331 -8.899009 1.740181 5.888278 -4.491850 105.344180 -0.000001 -0.000001 0.000004 4.166161 -8.600783 42.153213 7.050138 -3.996497 120.947118 -0.000001 -0.000000 0.000003 -0.361111 -4.549262 57.044241 4.703206 -4.656924 90.567079 -0.000001 0.000001 0.000001 -5.324602 -0.292088 51.887315 3.524508 -4.517609 75.909268 0.000002 -0.000004 -0.000000 -0.000001 0.000001 0.000001 0.000000 0.000001 0.000003 -0.000002 0.000001 0.000003 0.000000 0.000003 -0.000001 -0.000000 0.000003 -0.000000 0.000000 0.000003 -0.000001 -0.000000 0.000003 0.000002 0.000001 0.000000 0.000000 0.000001 0.000000 0.000000 0.000001 0.000000 0.000000 0.000001 0.000000 0.000000 0.000001 0.000000 0.000000 0.000001 0.000000 0.000000 0.000001 0.000000 0.000000 -0.000000 0.000000 -0.000000 -0.000000 0.000001 0.000000 
-2.537295 89.590355 3.812313 5.210756 -14.306890 8.617700 0.000000 0.000000 0.000000 -32.384051 -6.991707 -13.451331 5.772713 -5.745449 -6.279308 23.041233 -26.773056 6.214705 -0.000000 -0.000000 -0.000000 -0.000000 0.000000 0.000000 0.941689 -15.211840 -12.711509 36.164335 6.722921 -5.275786 -13.751326 -1.322942 9.232559 -0.000004 0.000001 -0.000001 0.000004 0.000002 -0.000002 1.880393 5.055768 1.665624 5.123978 9.217473 2.076672 4.996254 9.218043 2.326918 -0.733542 -0.506457 -0.483842 -0.733535 -0.506456 -0.483851 -0.000001 0.000000 -0.000001 -0.733614 -0.506455 -0.483847 -0.733401 -0.506479 -0.483846 0.000001 0.000000 0.000000 -0.000001 0.000000 -0.000001 0.676444 -0.901443 -14.262931 -19.187203 -25.974199 -72.374918 -0.000060 -69.092677 -0.000075 -35.558757 7.571563 42.707599 -10.930942 -6.748088 10.337256 -18.089413 8.879768 2.392675 -0.000000 -0.000001 0.000001 5.203250 8.176895 -87.878949 6.195211 5.840956 -93.377825 0.000002 -0.000000 0.000001 7.765529 7.904000 -107.399500 4.299845 5.642358 -74.600815 0.000000 0.000001 -0.000002 7.314712 8.035595 -105.794993 3.608029 5.405390 -67.422901 -0.000001 -0.000001 -0.000001 10.390478 6.780256 -113.877142 1.747968 4.174822 -45.422155 -0.000001 -0.000003 0.000000 -0.000001 0.000001 0.000000 -0.000001 0.000001 0.000000 -0.000002 0.000001 0.000000 0.000000 0.000001 -0.000003 0.000001 -0.000000 -0.000004 0.000000 0.000001 -0.000003 0.000001 0.000001 -0.000003 -0.104594 13.026401 18.035939 -38.630976 63.992869 69.627891 0.000007 39.655371 0.000004 -21.415143 -6.603394 -16.217241 17.912427 17.120588 -32.483550 12.694409 -52.014233 20.210858 -0.000000 0.000003 -0.000004 0.276350 -8.899009 1.740167 5.888278 -4.491856 105.344186 -0.000000 -0.000001 0.000001 4.166166 -8.600784 42.153213 7.050137 -3.996497 120.947105 -0.000000 0.000000 -0.000002 -0.361094 -4.549256 57.044241 4.703205 -4.656924 90.567086 -0.000000 0.000002 -0.000000 -5.324596 -0.292086 51.887301 3.524507 -4.517611 75.909274 0.000000 -0.000002 -0.000002 0.000001 -0.000002 -0.000002 0.000001 -0.000001 -0.000001 0.000001 -0.000001 -0.000002 -0.000001 -0.000002 0.000002 -0.000001 -0.000001 0.000003 -0.000001 -0.000002 0.000002 -0.000001 -0.000001 0.000003 -0.000001 -0.000000 -0.000001 -0.000001 -0.000000 -0.000001 -0.000001 -0.000000 -0.000001 -0.000001 -0.000000 -0.000001 -0.000001 -0.000000 -0.000001 -0.000001 -0.000000 -0.000001 -0.000001 -0.000000 -0.000001 0.000000 0.000001 -0.000000 0.000000 0.000000 0.000000 
